<svg id="Capa_1" data-name="Capa 1" xmlns="http://www.w3.org/2000/svg" viewBox="0 0 281.45 31.29"><defs><style>.cls-1{fill:#e74826;}.cls-2{fill:#3c3c3b;}</style></defs><title>Logo_Square+Horizontal</title><path class="cls-1" d="M0,30.77L4.78,0.61h8.16l-3.65,23h6.12l-1.13,7.12H0Z"/><path class="cls-1" d="M29.22,30.77V26.89H23.75l-1.29,3.88h-8.4l12-30.16H36l1.62,30.16H29.22Zm0.07-10.28,0.23-7c0.06-1.88.2-3.8,0.3-5.68H29.73c-0.54,1.88-1,3.8-1.66,5.68l-2.23,7h3.44Z"/><path class="cls-1" d="M62.47,0.61L59.35,20.33c-0.58,3.64-2.54,11-12,11s-9.08-7.32-8.5-11L42,0.61h8.16l-3,19a9.86,9.86,0,0,0-.22,2.64,1.49,1.49,0,0,0,1.65,1.48,2.12,2.12,0,0,0,2.11-1.44,10.77,10.77,0,0,0,.62-2.64l3-19h8.16Z"/><path class="cls-1" d="M63.74,0.61H71.5l3.64,18.16,0.09-.08c0.23-3.48.18-6.92,0.73-10.4l1.22-7.68H85L80.25,30.77H72.41l-3.32-17.4L69,13.45c-0.25,2.84-.33,5.64-0.78,8.48l-1.4,8.84H59Z"/><path class="cls-1" d="M102,9.45a4.18,4.18,0,0,0-3.52-1.76c-4.24,0-6,4.68-6.55,8-0.56,3.52-.23,8,3.85,8a7,7,0,0,0,4.62-1.92l-1.82,8.44a12.77,12.77,0,0,1-5.09,1.08c-6.68,0-11.55-5.08-9.92-15.4C85.7,2.37,95.33.09,99.29,0.09a10.37,10.37,0,0,1,4,.72Z"/><path class="cls-2" d="M158.33,9.41a4.18,4.18,0,0,0-3.52-1.76c-4.24,0-6,4.68-6.55,8-0.56,3.52-.23,8,3.85,8a7,7,0,0,0,4.62-1.92l-1.82,8.44a12.77,12.77,0,0,1-5.09,1.08c-6.68,0-11.55-5.08-9.92-15.4C142.06,2.33,151.7,0,155.66,0a10.37,10.37,0,0,1,4,.72Z"/><path class="cls-2" d="M141.14,28.24c-2.41-2.82-3.23-7.12-2.39-12.46C140.6,4.1,147.88.88,152,0c-2.77,0-5.68.07-5.68,0.07-4,0-13.6,2.28-15.74,15.8-1.63,10.32,3.24,15.4,9.92,15.4l5.69,0A9.42,9.42,0,0,1,141.14,28.24Z"/><path class="cls-1" d="M172.17,0.09c8.28,0,10.21,8.24,9,15.6s-5.71,15.6-14,15.6-10.21-8.24-9-15.6S163.89,0.09,172.17.09Zm-3.74,23.6c3.08,0,4.17-6.12,4.47-8s1.15-8-1.93-8-4.17,6.12-4.47,8S165.36,23.69,168.44,23.69Z"/><path class="cls-1" d="M185.07,0.61h7.76l3.64,18.16,0.09-.08c0.23-3.48.18-6.92,0.73-10.4l1.22-7.68h7.84l-4.77,30.16h-7.84l-3.32-17.4-0.09.08c-0.25,2.84-.33,5.64-0.78,8.48l-1.4,8.84H180.3Z"/><path class="cls-1" d="M206.84,30.77L210.45,8H206l1.17-7.36h17.32L223.29,8h-4.68L215,30.77h-8.16Z"/><path class="cls-1" d="M233.09,30.77l-2.53-12.56-0.09.08c-0.19,1.48-.35,3-0.58,4.44l-1.27,8h-8.16l4.78-30.16h7.88c7.08,0,11.87,2.08,10.61,10a9.26,9.26,0,0,1-5.88,7.56l4.09,12.56h-8.84Zm-1.4-16.2a4.24,4.24,0,0,0,3.93-3.84c0.42-2.64-1-3.76-3.26-3.64l-1.18,7.44Z"/><path class="cls-1" d="M257.76,0.09c8.28,0,10.21,8.24,9,15.6s-5.71,15.6-14,15.6-10.21-8.24-9-15.6S249.48,0.09,257.76.09ZM254,23.69c3.08,0,4.17-6.12,4.47-8s1.15-8-1.93-8-4.17,6.12-4.47,8S250.94,23.69,254,23.69Z"/><path class="cls-1" d="M266,30.77l4.78-30.16H279l-3.65,23h6.12l-1.13,7.12H266Z"/><path class="cls-1" d="M112,30.77l1.94-12.24h-3.88l-1.94,12.24H100l4.77-30.16h8.16l-1.71,10.8h3.88l1.71-10.8h8.16l-4.77,30.16H112Z"/></svg>